<svg id="Calque_1" data-name="Calque 1" xmlns="http://www.w3.org/2000/svg" viewBox="0 0 527 704"><defs><style>.cls-1{fill:#ffcb4a;}</style></defs><path class="cls-1" d="M550.18,167H324.42a54.75,54.75,0,0,0-54.75,54.75v594.5A54.75,54.75,0,0,0,324.42,871h417.5a54.75,54.75,0,0,0,54.75-54.75V393.36a131.4,131.4,0,0,0-54.48-106.53L597.38,182.26A80.62,80.62,0,0,0,550.18,167ZM373,519.5A29.5,29.5,0,0,1,402.5,490h163A29.5,29.5,0,0,1,595,519.5h0A29.5,29.5,0,0,1,565.5,549h-163A29.5,29.5,0,0,1,373,519.5Zm321,128A29.5,29.5,0,0,1,664.5,677h-262A29.5,29.5,0,0,1,373,647.5h0A29.5,29.5,0,0,1,402.5,618h262A29.5,29.5,0,0,1,694,647.5Z" transform="translate(-269.67 -167)"/></svg>